<?xml version="1.0" encoding="utf-8"?>
<!-- Generator: Adobe Illustrator 24.0.0, SVG Export Plug-In . SVG Version: 6.00 Build 0)  -->
<svg version="1.1"
	 id="svg2719" xmlns:cc="http://creativecommons.org/ns#" xmlns:dc="http://purl.org/dc/elements/1.1/" xmlns:rdf="http://www.w3.org/1999/02/22-rdf-syntax-ns#" xmlns:svg="http://www.w3.org/2000/svg"
	 xmlns="http://www.w3.org/2000/svg" xmlns:xlink="http://www.w3.org/1999/xlink" x="0px" y="0px" viewBox="0 0 62 62"
	 enable-background="new 0 0 62 62" xml:space="preserve">
<g id="layer1" transform="translate(0,-280.59582)">
	<g id="g2754" transform="translate(-0.79853618,0.47271794)">
		<rect id="rect2614" x="6.8" y="286.1" display="none" fill-opacity="0.5301" width="50" height="50"/>
		
			<linearGradient id="rect2603_1_" gradientUnits="userSpaceOnUse" x1="-9.541" y1="-296.4824" x2="3.6881" y2="-283.2532" gradientTransform="matrix(3.7795 0 0 -3.7795 42.859 -784.44)">
			<stop  offset="0" style="stop-color:#EBEBEB"/>
			<stop  offset="1" style="stop-color:#FFFFFF"/>
		</linearGradient>
		<path id="rect2603" display="none" fill="url(#rect2603_1_)" d="M12,286.1h39.6c2.9,0,5.2,2.3,5.2,5.2v39.6c0,2.9-2.3,5.2-5.2,5.2
			H12c-2.9,0-5.2-2.3-5.2-5.2v-39.6C6.8,288.4,9.1,286.1,12,286.1z"/>
		
			<linearGradient id="rect2605_1_" gradientUnits="userSpaceOnUse" x1="-3.7161" y1="-291.064" x2="2.4813" y2="-283.7208" gradientTransform="matrix(3.7795 0 0 -3.7795 42.859 -784.44)">
			<stop  offset="0" style="stop-color:#414141"/>
			<stop  offset="1" style="stop-color:#767676"/>
		</linearGradient>
		<path id="rect2605" display="none" fill="url(#rect2605_1_)" d="M32.2,290.4h17.2c1.5,0,2.7,1.2,2.7,2.7v17c0,1.5-1.9,3-3.7,1.2
			c-1.8-1.7-16.1-15.4-17.8-17.1C28.8,292.5,30,290.4,32.2,290.4z"/>
		<path fill="#FFFFFF" d="M31.9,335.9c-13.7,0-24.9-11.2-24.9-24.9c0-13.7,11.2-24.9,24.9-24.9s24.9,11.2,24.9,24.9
			C56.8,324.7,45.6,335.9,31.9,335.9z M31.9,289.9c-11.6,0-21,9.4-21,21c0,11.6,9.4,21,21,21s21-9.4,21-21
			C53,299.4,43.5,289.9,31.9,289.9z"/>
		<g>
			<path fill="#FFFFFF" d="M45.3,297.2H39c-0.4,0-0.7,0.3-0.7,0.7v1.8c0,0.4,0.3,0.7,0.7,0.7h1.7l-5,5c-0.1,0.1-0.2,0.3-0.2,0.5
				c0,0.2,0.1,0.3,0.2,0.5l1.2,1.2c0.1,0.1,0.3,0.2,0.5,0.2c0.2,0,0.3-0.1,0.5-0.2l5-5v1.7c0,0.4,0.3,0.7,0.7,0.7h1.8
				c0.4,0,0.7-0.3,0.7-0.7v-6.3C45.9,297.5,45.6,297.2,45.3,297.2z"/>
			<path fill="#FFFFFF" d="M23.3,300.3H25c0.4,0,0.7-0.3,0.7-0.7v-1.8c0-0.4-0.3-0.7-0.7-0.7h-6.3c-0.4,0-0.7,0.3-0.7,0.7v6.3
				c0,0.4,0.3,0.7,0.7,0.7h1.8c0.4,0,0.7-0.3,0.7-0.7v-1.7l5,5c0.1,0.1,0.3,0.2,0.5,0.2c0.2,0,0.3-0.1,0.5-0.2l1.2-1.2
				c0.1-0.1,0.2-0.3,0.2-0.5c0-0.2-0.1-0.3-0.2-0.5L23.3,300.3z"/>
			<path fill="#FFFFFF" d="M27.1,314.6c-0.3-0.3-0.7-0.3-0.9,0l-5,5V318c0-0.4-0.3-0.7-0.7-0.7h-1.8c-0.4,0-0.7,0.3-0.7,0.7v6.3
				c0,0.4,0.3,0.7,0.7,0.7H25c0.4,0,0.7-0.3,0.7-0.7v-1.8c0-0.4-0.3-0.7-0.7-0.7h-1.7l5-5c0.1-0.1,0.2-0.3,0.2-0.5
				c0-0.2-0.1-0.3-0.2-0.5L27.1,314.6z"/>
			<path fill="#FFFFFF" d="M45.3,317.3h-1.8c-0.4,0-0.7,0.3-0.7,0.7v1.7l-5-5c-0.3-0.3-0.7-0.3-0.9,0l-1.2,1.2
				c-0.1,0.1-0.2,0.3-0.2,0.5s0.1,0.3,0.2,0.5l5,5H39c-0.4,0-0.7,0.3-0.7,0.7v1.8c0,0.4,0.3,0.7,0.7,0.7h6.3c0.4,0,0.7-0.3,0.7-0.7
				V318C45.9,317.6,45.6,317.3,45.3,317.3z"/>
		</g>
	</g>
</g>
</svg>
